<svg xmlns="http://www.w3.org/2000/svg" viewBox="0 0 45 45" width="45" height="45">
  <g fill="none" stroke="#000" stroke-width="1.5" stroke-linejoin="round">
    <path d="M22.5 11.63V6" stroke-linecap="round"/>
    <path d="M22.5 25s4.5-7.5 3-10.5c0 0-1-2.5-3-2.5s-3 2.5-3 2.5c-1.5 3 3 10.5 3 10.5" fill="#000" stroke-linecap="butt"/>
    <path d="M12.5 37c5.5 3.5 14.5 3.5 20 0v-7s9-4.5 6-10.5c-4-6.5-13.5-3.5-16 4V27v-3.5c-2.5-7.5-12-10.5-16-4-3 6 6 10.5 6 10.5v7" fill="#000"/>
    <path d="M20 8h5" stroke-linecap="round"/>
    <path d="M32 29.5s8.5-4 6.03-9.65C34.15 14 25 18 22.5 24.5l.01 2.1-.01-2.1C20 18 9.906 14 6.997 19.85c-2.497 5.65 4.853 9 4.853 9" stroke="#fff"/>
    <path d="M12.5 30c5.5-3 14.5-3 20 0m-20 3.5c5.5-3 14.5-3 20 0m-20 3.5c5.5-3 14.5-3 20 0" stroke="#fff"/>
  </g>
</svg>
