<svg xmlns="http://www.w3.org/2000/svg" viewBox="0 0 45 45" width="45" height="45">
  <g fill="none" stroke="#000" stroke-width="1.5" stroke-linejoin="round">
    <g fill="#000" stroke-linecap="butt">
      <path d="M9 36c3.4-1 10.1.4 13.5-2 3.4 2.4 10.1 1 13.5 2 0 0 1.7.5 3 2-.7 1-1.6 1-3 .5-3.4-1-10.1.5-13.5-1-3.4 1.5-10.1 0-13.5 1-1.4.5-2.3.5-3-.5 1.3-1.6 3-2 3-2z"/>
      <path d="M15 32c2.5 2.5 12.5 2.5 15 0 .5-1.5 0-2 0-2 0-2.5-2.5-4-2.5-4 5.5-1.5 6-11.5-5-15.5-11 4-10.5 14-5 15.5 0 0-2.5 1.5-2.5 4 0 0-.5.5 0 2z"/>
      <path d="M25 8a2.5 2.5 0 1 1-5 0 2.5 2.5 0 1 1 5 0z"/>
    </g>
    <path d="M17.5 26h10M15 30h15M22.5 15.5v5M20 18h5" stroke="#fff" stroke-linejoin="miter"/>
  </g>
</svg>
